<svg xmlns="http://www.w3.org/2000/svg" viewBox="0 0 1000.046 323.653" width="1000.046" height="323.653"><path d="M433.983 164.108c-.3 23.191 20.794 36.093 36.69 43.784 16.333 7.893 21.808 12.959 21.75 20.04-.107 10.82-13.026 15.591-25.068 15.773-21.09.322-33.353-5.697-43.05-10.236l-7.598 35.553c9.763 4.5 27.851 8.425 46.607 8.611 44.05 0 72.858-21.759 73.082-55.487.247-42.824-59.246-45.188-58.8-64.33.15-5.812 5.696-12.018 17.884-13.59 6.035-.788 22.685-1.398 41.606 7.235l7.428-34.634c-10.15-3.693-23.23-7.236-39.376-7.236-41.583 0-70.81 22.074-71.055 53.517M644.845 123.812c-8.123 0-14.935 4.744-17.936 12.031l-63.343 151.22h44.05l8.82-24.385h54.2l5.123 24.385h38.864l-34.195-163.251h-35.583zm6.035 43.784l12.768 61.042h-35.068l22.3-61.042zM372.734 123.812l-34.635 163.251h41.968l34.635-163.251h-41.968zM330.453 123.812l-43.784 111.1-18.676-89.342c-2.196-11.194-10.92-21.758-22.602-21.758h-71.68l-1.02 4.744c14.72 3.192 31.417 8.36 41.583 13.878 6.197 3.192 7.966 5.972 10.002 13.59l33.614 130.039h44.365l68.198-163.251h-40z" fill="#2566af"/><path d="M146.532 123.812l-1.021 4.744c14.72 3.192 31.417 8.36 41.583 13.878 6.197 3.192 7.966 5.972 10.002 13.59l33.614 130.039h44.365l68.198-163.251h-196.74z" fill="#e6a540"/><path fill="none" d="M0 0h1000.046v323.653H0z"/></svg>
